<?xml version="1.0" encoding="utf-8"?>
<!-- Svg Vector Icons : http://www.onlinewebfonts.com/icon -->
<!DOCTYPE svg PUBLIC "-//W3C//DTD SVG 1.1//EN" "http://www.w3.org/Graphics/SVG/1.1/DTD/svg11.dtd">
<svg version="1.1" xmlns="http://www.w3.org/2000/svg" xmlns:xlink="http://www.w3.org/1999/xlink" x="0px" y="0px" viewBox="0 0 1000 1000" enable-background="new 0 0 1000 1000" xml:space="preserve">
<metadata> Svg Vector Icons : http://www.onlinewebfonts.com/icon </metadata>
<g><path d="M980.3,18.9c-12.9-13-33.9-13-46.8,0L699.6,253.4l-8.3-8.3c-12.9-12.9-33.9-12.9-46.8,0l-23.4,23.5L608,255.4c-12.9-12.9-33.9-12.9-46.8,0l-373,373.9c-3.6,3.7-6,8-7.6,12.6l-49.1-49.2c-12.9-13-33.9-13-46.8,0c-12.9,13-12.9,34,0,46.9l114.5,114.7L80.7,873l-14.2-14.3c-12.9-12.9-33.9-12.9-46.8,0c-12.9,13-12.9,33.9,0,46.9l75.2,75.4c12.9,12.9,33.9,12.9,46.8,0c12.9-13,12.9-33.9,0-46.9l-14.2-14.2l118.5-118.7l45,45.1c0.1,0.1,0.1,0.2,0.2,0.2l69.3,69.4c12.9,12.9,33.9,12.9,46.8,0c6.5-6.5,9.7-15,9.7-23.4c0-8.5-3.2-17-9.7-23.5c0,0-25.9-25.9-46.4-46.5c4.5-4.7,10.3-10.8,10.3-10.8l372.5-373.5c6.2-6.2,9.7-14.6,9.7-23.4c0-8.8-3.5-17.2-9.7-23.5l-10.2-10.2l23.4-23.5c12.9-13,12.9-34,0-46.9l-10.4-10.4L980.3,65.8C993.2,52.9,993.2,31.9,980.3,18.9z M347.2,741.8c-26.2-26.3-67.9-68.1-88.9-89.1c9.8-9.8,33.5-33.6,63.9-64l38.8,38.9c12.9,12.9,33.9,12.9,46.8,0c12.9-12.9,12.9-33.9,0-46.9L369,541.8c14.2-14.3,29-29.1,43.9-44l38.8,38.9c12.9,12.9,33.9,12.9,46.8,0c12.9-13,12.9-33.9,0-46.9l-38.8-38.9c15.3-15.3,30.1-30.1,43.9-44l38.8,38.9c12.9,13,33.9,13,46.8,0c12.9-12.9,12.9-33.9,0-46.9L550.4,360c15.7-15.7,27.9-28,34.2-34.3c27.9,27.9,79.2,79.4,79.2,79.4s5.7,5.7,9.7,9.7C639.2,449.1,419.9,669,347.2,741.8z"/></g>
</svg>