<?xml version="1.0" encoding="utf-8"?>
<!-- Svg Vector Icons : http://www.onlinewebfonts.com/icon -->
<!DOCTYPE svg PUBLIC "-//W3C//DTD SVG 1.1//EN" "http://www.w3.org/Graphics/SVG/1.1/DTD/svg11.dtd">
<svg version="1.1" xmlns="http://www.w3.org/2000/svg" xmlns:xlink="http://www.w3.org/1999/xlink" x="0px" y="0px" viewBox="0 0 1000 1000" enable-background="new 0 0 1000 1000" xml:space="preserve">
<metadata> Svg Vector Icons : http://www.onlinewebfonts.com/icon </metadata>
<g><path d="M100.6,582.2c12.9,0,23.5-10.3,23.5-23.5c0-130.2,65.8-249.3,176.2-318.6c11-6.8,14.3-21.4,7.5-32.4c-6.8-10.8-21.4-14.1-32.4-7.3c-124,78-198.3,211.9-198.3,358.3C77.1,571.9,87.7,582.2,100.6,582.2z M500,981.6c69.3,0,138.1-17.1,199-49.6c11.5-6.1,15.7-20.4,9.6-31.7c-6.1-11.5-20.2-15.7-31.7-9.6c-108.1,57.6-245.7,57.6-353.8,0c-11.3-6.1-25.6-1.9-31.7,9.6c-6.1,11.3-1.9,25.6,9.6,31.7C361.9,964.5,430.7,981.6,500,981.6z M899.4,582.2c12.9,0,23.5-10.3,23.5-23.5c0-146.8-74.5-281.2-199.5-359c-11-6.8-25.4-3.5-32.2,7.5c-7,11-3.5,25.6,7.5,32.4c110.9,69.1,177.1,188.4,177.1,319C875.9,571.9,886.5,582.2,899.4,582.2z M500,65.4c64.8,0,117.5,52.9,117.5,117.5c0,64.8-52.6,117.5-117.5,117.5c-64.8,0-117.5-52.6-117.5-117.5C382.5,118.2,435.2,65.4,500,65.4z M500,347.3c90.7,0,164.5-73.8,164.5-164.5S590.7,18.4,500,18.4c-90.7,0-164.5,73.8-164.5,164.5S409.3,347.3,500,347.3z M174.4,629.2c41.8,0,80.8,22.6,101.7,58.7c32.4,56.1,13.2,128-43,160.5c-17.9,10.3-38.1,15.7-58.5,15.7c-41.8,0-81.1-22.3-102-58.7c-32.4-55.9-12.9-128,43-160.5C133.5,634.6,153.9,629.2,174.4,629.2z M174.6,911.1c28.7,0,57.1-7.5,82-21.8C335.3,844,362.3,743.2,317,664.5c-29.4-50.7-84.1-82.2-142.6-82.2c-28.7,0-57.1,7.8-82.2,22.1C13.7,649.7-13.3,750.4,32,828.9C61.4,879.7,115.9,911.1,174.6,911.1z M825.6,629.2c20.4,0,40.9,5.4,58.7,15.7c55.9,32.4,75.4,104.5,43,160.5c-20.9,36.4-60.1,58.7-102,58.7c-20.4,0-40.6-5.4-58.5-15.7c-56.2-32.4-75.4-104.3-43-160.5C744.8,651.8,783.8,629.2,825.6,629.2z M825.4,911.1c58.7,0,113.2-31.5,142.6-82.2c45.3-78.5,18.3-179.3-60.1-224.6c-25.1-14.3-53.6-22.1-82.2-22.1c-58.5,0-113.2,31.5-142.6,82.2c-45.3,78.7-18.3,179.5,60.4,224.8C768.3,903.6,796.7,911.1,825.4,911.1z"/></g>
</svg>