<?xml version="1.0" encoding="UTF-8"?>
<svg width="700pt" height="700pt" version="1.1" viewBox="0 0 700 700" xmlns="http://www.w3.org/2000/svg" xmlns:xlink="http://www.w3.org/1999/xlink">
 <g>
  <path d="m346.08 338.24c-4.4805-5.0391-10.641-8.3984-17.359-8.3984h-50.961l-11.758-28h47.602c8.9609 0 16.801-6.1602 18.48-14.559 1.6797-11.199-6.7188-20.719-17.359-20.719h-50.961s-17.359-16.238-25.199-23.52c-12.32-10.641-22.961-14-35.84-10.078-9.5195 2.8008-17.359 9.5195-21.281 18.48-4.4805 8.9609-4.4805 19.039-0.55859 28.559l34.16 81.199c3.3594 8.3984 11.762 14 20.719 14h77.84c2.8008 0 6.1602 1.1211 7.8398 3.9219l47.039 58.801c4.4805 5.6016 11.199 8.3984 17.359 8.3984 5.0391 0 9.5195-1.6797 13.441-4.4805 10.078-7.8398 10.641-22.961 2.8008-33.039z"/>
  <path d="m308.56 402.64c-2.8008-3.3594-6.7188-5.0391-10.641-5.0391h-65.52c-16.801 0-31.922-10.078-38.078-25.762l-51.52-124.32c-6.1602-14.559-21.84-21.84-36.961-17.359-8.3984 2.2383-15.121 8.3984-19.039 16.238-3.9219 7.8398-3.9219 16.801-0.55859 24.641l75.602 180.88c4.4805 11.199 15.68 18.48 27.441 18.48h145.04c5.6016 0 10.078-3.3594 12.879-7.8398 2.2383-5.0391 1.6797-10.641-1.6797-15.121z"/>
  <path d="m203.4 157.14c17.848 9.9141 24.277 32.41 14.367 50.258-9.9102 17.844-32.41 24.273-50.254 14.363-17.844-9.9102-24.277-32.41-14.367-50.254 9.9102-17.844 32.41-24.277 50.254-14.367"/>
  <path d="m260.96 168.56c-1.1211 3.9219-3.9219 9.5195-9.5195 16.238-3.3594 3.9219 0.55859 10.078 5.6016 8.3984 10.641-3.9219 22.398-9.5195 33.602-14.559 3.3594 0.55859 6.7188 0.55859 10.641 0.55859 35.281 0 63.84-20.16 63.84-45.359 0-25.199-28.559-45.359-63.84-45.359s-63.84 20.16-63.84 45.359c-0.56641 13.445 8.9531 26.324 23.516 34.723zm71.68-44.238c4.4805 0 8.3984 3.9219 8.3984 8.3984 0 4.4805-3.9219 8.3984-8.3984 8.3984-4.4805 0-8.3984-3.9219-8.3984-8.3984-0.5625-4.4805 3.3594-8.3984 8.3984-8.3984zm-31.922 0c4.4805 0 8.3984 3.9219 8.3984 8.3984 0 4.4805-3.9219 8.3984-8.3984 8.3984-4.4805 0-8.3984-3.9219-8.3984-8.3984 0-4.4805 3.918-8.3984 8.3984-8.3984zm-31.359 0c4.4805 0 8.3984 3.9219 8.3984 8.3984 0 4.4805-3.9219 8.3984-8.3984 8.3984-4.4805 0-8.3984-3.9219-8.3984-8.3984 0-4.4805 3.3594-8.3984 8.3984-8.3984z"/>
  <path d="m575.12 243.04c-8.3984 0.55859-15.121 4.4805-21.281 10.078-6.7188 5.6016-29.68 25.199-29.68 25.199h-38.078c-10.078 0-17.922 7.8398-17.922 17.922 0 10.078 7.8398 17.922 17.922 17.922h44.238c3.3594 0 6.7188-1.1211 9.5195-2.8008l-3.3594 29.121h-52.641c-5.6016 0-11.199 2.2383-15.68 6.7188-3.9219 4.4805-6.1602 10.078-5.6016 15.68l5.0391 90.16c0.55859 11.199 10.078 20.16 21.281 20.16h1.1211c11.762-0.55859 20.719-10.641 20.16-22.398l-3.9219-67.199 70.559 0.55859c10.641 0 19.602-7.8398 21.281-18.48l11.762-85.68v-2.2383c0.55859-9.5195-3.3594-18.48-10.078-25.199-6.1602-6.7227-15.121-10.082-24.641-9.5234z"/>
  <path d="m603.79 171.2c14.707 12.781 16.27 35.062 3.4883 49.77-12.781 14.707-35.062 16.27-49.77 3.4883-14.707-12.781-16.27-35.062-3.4883-49.77 12.781-14.707 35.062-16.27 49.77-3.4883"/>
 </g>
</svg>
